<?xml version="1.0" encoding="UTF-8"?>
<svg width="50px"  id="Capa_2" data-name="Capa 2" xmlns="http://www.w3.org/2000/svg" viewBox="0 0 291.41 321.91">
  <defs>
    <style>
      .cls-1 {
        fill: #fff;
        stroke-width: 0px;
      }
    </style>
  </defs>
  <g id="Capa_1-2" data-name="Capa 1">
    <g>
      <g>
        <path class="cls-1" d="m21.64,86.21l3.91-4.46,16.12,14.13,7.24-8.26,4.12,3.61-11.15,12.72-20.23-17.73Z"/>
        <path class="cls-1" d="m44.56,63.08l3.82-3.07,25.97,13.65-5.22,4.19-5.38-2.99-8.15,6.54,1.82,5.85-5.1,4.09-7.77-28.26Zm6.68,4.68l2.69,8.57,5.13-4.12-7.81-4.45Z"/>
        <path class="cls-1" d="m74.72,43.17l16.54-7.22,2.19,5.02-11.11,4.85,2.19,5.02,10.28-4.48,2.19,5.02-10.28,4.48,4.19,9.61-5.43,2.37-10.76-24.66Z"/>
        <path class="cls-1" d="m100.53,46.52c-.46-2.1-.52-4.09-.19-5.95.33-1.86,1-3.53,2-5.01,1-1.48,2.3-2.72,3.89-3.74,1.59-1.02,3.42-1.75,5.47-2.2,2.05-.45,4.02-.54,5.89-.27,1.87.27,3.57.86,5.1,1.79,1.52.93,2.82,2.17,3.9,3.72,1.08,1.55,1.84,3.38,2.3,5.49.46,2.1.52,4.09.19,5.95-.33,1.86-1,3.53-2,5.01-1,1.48-2.3,2.72-3.89,3.74-1.59,1.02-3.42,1.75-5.47,2.2-2.05.45-4.02.54-5.89.27-1.87-.27-3.57-.86-5.1-1.79-1.52-.93-2.82-2.17-3.9-3.72-1.08-1.55-1.84-3.38-2.3-5.49Zm6.02-1.31c.27,1.24.71,2.33,1.31,3.27.61.94,1.35,1.72,2.23,2.31.88.6,1.87,1,2.96,1.2,1.09.2,2.26.17,3.5-.1,1.24-.27,2.31-.72,3.22-1.36.91-.64,1.64-1.41,2.2-2.33.55-.91.91-1.92,1.07-3.03.16-1.11.11-2.28-.16-3.52-.26-1.21-.7-2.3-1.31-3.25-.61-.96-1.36-1.73-2.24-2.33-.88-.6-1.87-1-2.96-1.2-1.09-.2-2.26-.17-3.5.1-1.24.27-2.31.72-3.22,1.36-.91.64-1.64,1.41-2.2,2.33-.55.91-.91,1.93-1.07,3.05-.16,1.12-.1,2.29.16,3.5Z"/>
        <path class="cls-1" d="m134.75,26.53l8.06.1,11.22,18.83h.08s.22-18.69.22-18.69l5.93.07-.32,26.9-7.75-.09-11.51-19.29h-.08s-.23,19.15-.23,19.15l-5.93-.07.32-26.9Z"/>
        <path class="cls-1" d="m173.59,34.42l-7.52-1.53,1.05-5.14,20.85,4.25-1.05,5.14-7.52-1.53-4.33,21.22-5.81-1.19,4.33-21.22Z"/>
        <path class="cls-1" d="m198.9,35.8l4.59,1.72,1.55,29.3-6.26-2.34-.18-6.15-9.79-3.66-4.1,4.55-6.12-2.29,20.31-21.13Zm-.6,8.13l-5.99,6.69,6.16,2.3-.17-8.99Z"/>
        <path class="cls-1" d="m219.18,44.66l5.2,2.85-12.92,23.6-5.2-2.85,12.92-23.6Z"/>
        <path class="cls-1" d="m231.93,51.53l6.4,4.9-2.29,21.8.06.05,11.37-14.84,4.71,3.6-16.36,21.36-6.15-4.71,2.32-22.34-.06-.05-11.65,15.2-4.71-3.6,16.36-21.36Z"/>
        <path class="cls-1" d="m259.07,74l12.05,13.75-4.12,3.61-8.14-9.29-3.77,3.31,7.69,8.77-4.12,3.61-7.69-8.77-4.12,3.61,8.59,9.8-4.12,3.61-12.5-14.26,20.24-17.73Z"/>
      </g>
      <g>
        <path class="cls-1" d="m244.35,282.25l-8.76-8.76,4.38-4.38c12.25-12.25,21.86-26.5,28.57-42.38,6.95-16.43,10.47-33.89,10.47-51.89s-3.52-35.46-10.47-51.89l-2.41-5.71,11.41-4.83,2.41,5.71c7.6,17.97,11.45,37.05,11.45,56.72s-3.85,38.75-11.45,56.72c-7.34,17.35-17.84,32.93-31.22,46.31l-4.38,4.38Z"/>
        <path class="cls-1" d="m47.06,282.25l-4.38-4.38c-13.38-13.38-23.88-28.96-31.22-46.31C3.85,213.59,0,194.51,0,174.85s3.85-38.75,11.45-56.72l2.41-5.71,11.41,4.83-2.41,5.71c-6.95,16.43-10.47,33.89-10.47,51.89s3.52,35.46,10.47,51.89c6.71,15.87,16.33,30.13,28.57,42.38l4.38,4.38-8.76,8.76Z"/>
      </g>
      <g>
        <path class="cls-1" d="m95.52,11c-.73-.5-1.52-.8-2.37-.88-.85-.09-1.67,0-2.47.28-.92.31-1.71.79-2.35,1.43s-1.14,1.37-1.49,2.2c-.35.83-.54,1.71-.56,2.65-.03.94.11,1.87.42,2.78.33.97.79,1.82,1.39,2.55.6.73,1.28,1.31,2.04,1.74.77.43,1.6.69,2.49.79.9.1,1.81-.02,2.75-.34,1.02-.35,1.86-.85,2.52-1.52.66-.67,1.16-1.48,1.5-2.44l1.9.74c-.41,1.26-1.06,2.3-1.96,3.13-.9.83-2.01,1.47-3.34,1.92-1.19.4-2.37.56-3.55.48-1.18-.09-2.28-.39-3.31-.9-1.02-.52-1.93-1.23-2.72-2.15-.79-.92-1.4-2.01-1.84-3.28-.42-1.22-.6-2.43-.54-3.64.05-1.2.32-2.33.81-3.36.48-1.04,1.17-1.96,2.04-2.76.88-.8,1.93-1.42,3.17-1.84,1.13-.38,2.28-.55,3.46-.5,1.18.05,2.28.42,3.29,1.1l-1.29,1.83Z"/>
        <path class="cls-1" d="m114.9,21.06c-1.31.26-2.56.27-3.75.03s-2.26-.68-3.22-1.32-1.77-1.48-2.44-2.5c-.67-1.02-1.13-2.18-1.38-3.48-.26-1.3-.27-2.54-.04-3.74.23-1.2.66-2.28,1.31-3.24.64-.96,1.47-1.78,2.47-2.45,1-.67,2.16-1.13,3.48-1.39,1.31-.26,2.56-.27,3.74-.03,1.18.24,2.26.68,3.22,1.32.96.64,1.77,1.48,2.44,2.5.67,1.02,1.13,2.18,1.38,3.48.26,1.3.27,2.54.04,3.74-.23,1.2-.66,2.28-1.31,3.24-.64.96-1.47,1.78-2.47,2.45-1,.67-2.16,1.13-3.48,1.39Zm-.37-1.9c1-.2,1.89-.57,2.65-1.1.76-.54,1.38-1.19,1.85-1.96.47-.77.79-1.62.95-2.55.16-.93.14-1.89-.05-2.88-.2-.99-.55-1.88-1.05-2.69-.5-.8-1.12-1.47-1.85-2-.73-.53-1.55-.9-2.45-1.11-.91-.21-1.87-.21-2.87-.01-1.01.2-1.89.57-2.65,1.1-.76.54-1.38,1.19-1.85,1.96-.47.77-.79,1.62-.95,2.55-.16.93-.14,1.89.05,2.88.2.99.54,1.88,1.05,2.69.5.8,1.12,1.47,1.85,2,.73.53,1.55.9,2.45,1.11.91.21,1.86.21,2.87.01Z"/>
        <path class="cls-1" d="m127.78.92l2.08-.16,1.22,15.57,8.01-.63.15,1.93-10.08.79-1.37-17.49Z"/>
        <path class="cls-1" d="m143.92,0l11.03.21-.04,1.93-8.95-.17-.1,5.5,8.35.16-.04,1.93-8.35-.16-.12,6.24,9.39.18-.04,1.93-11.47-.22.33-17.54Z"/>
        <path class="cls-1" d="m175.2,18.97c-1.08.42-2.18.68-3.32.79-1.14.11-2.28.09-3.41-.07-1.36-.19-2.57-.58-3.64-1.18-1.07-.6-1.96-1.36-2.68-2.27-.72-.92-1.22-1.97-1.53-3.15-.3-1.18-.36-2.46-.17-3.81.19-1.37.6-2.59,1.24-3.64.64-1.05,1.44-1.92,2.4-2.6.96-.68,2.04-1.16,3.23-1.44,1.19-.29,2.44-.34,3.75-.16,1.15.16,2.22.48,3.23.97,1.01.49,1.87,1.21,2.59,2.16l-1.77,1.41c-.5-.72-1.15-1.31-1.94-1.77-.8-.46-1.63-.75-2.52-.87-1-.14-1.95-.09-2.85.16-.9.24-1.71.64-2.43,1.19-.72.55-1.31,1.24-1.79,2.08-.47.83-.78,1.78-.93,2.82-.14,1.03-.1,2.01.13,2.95.23.93.61,1.77,1.15,2.5.54.73,1.23,1.34,2.06,1.82.83.48,1.78.8,2.85.94.7.1,1.45.11,2.25.05.79-.07,1.53-.22,2.21-.46l.74-5.33-4-.55.27-1.91,6.06.84-1.18,8.54Z"/>
        <path class="cls-1" d="m185.36,4.55l2.03.48-4.04,17.08-2.03-.48,4.04-17.08Z"/>
        <path class="cls-1" d="m197.17,26.63c-1.27-.44-2.35-1.05-3.25-1.85s-1.61-1.72-2.12-2.76c-.51-1.04-.79-2.17-.85-3.39-.06-1.22.12-2.45.55-3.7.43-1.25,1.04-2.34,1.84-3.26.8-.92,1.72-1.64,2.76-2.14,1.04-.51,2.16-.8,3.37-.87,1.2-.07,2.44.11,3.71.54,1.27.44,2.35,1.05,3.25,1.85.9.8,1.61,1.72,2.12,2.76.51,1.04.79,2.17.85,3.39.06,1.22-.12,2.45-.55,3.7-.43,1.25-1.04,2.34-1.84,3.26-.8.92-1.72,1.64-2.76,2.14-1.04.51-2.16.8-3.37.87-1.21.07-2.44-.11-3.71-.54Zm.63-1.83c.97.33,1.92.46,2.85.38.93-.08,1.79-.34,2.58-.76.79-.43,1.49-1,2.1-1.73.61-.73,1.08-1.56,1.4-2.52.33-.95.48-1.9.44-2.85-.03-.95-.23-1.83-.59-2.65-.36-.82-.89-1.55-1.57-2.19-.68-.64-1.51-1.12-2.47-1.45-.97-.33-1.92-.46-2.85-.38-.93.08-1.79.34-2.58.76-.79.43-1.49,1-2.1,1.73-.61.73-1.08,1.57-1.4,2.52-.33.95-.48,1.9-.44,2.85.03.95.23,1.83.59,2.65.36.82.88,1.55,1.57,2.19.68.64,1.51,1.12,2.47,1.45Z"/>
      </g>
      <g>
        <g>
          <path class="cls-1" d="m201.42,301.39c-15.02,6.17-34.85,9.57-55.83,9.57s-40.81-3.4-55.83-9.57c-13.59-5.58-22.15-13.01-24.77-21.31-.56,1.79-.86,3.62-.86,5.48,0,10.49,9.1,20,25.62,26.79,15.02,6.17,34.85,9.57,55.83,9.57s40.81-3.4,55.83-9.57c16.52-6.79,25.62-16.3,25.62-26.79,0-1.86-.29-3.69-.86-5.48-2.61,8.3-11.18,15.73-24.77,21.31Z"/>
          <path class="cls-1" d="m146.12,291.2c-24.77,0-51.17-4.9-57.92-15.52-1.07,1.68-1.65,3.51-1.65,5.48,0,14.43,30.88,21,59.57,21s59.57-6.57,59.57-21c0-1.97-.58-3.8-1.65-5.48-6.76,10.62-33.15,15.52-57.92,15.52Z"/>
        </g>
        <g>
          <path class="cls-1" d="m156.79,251.79c-10.06-14.57-11.89-29.03-12.31-35.49-.42,6.46-2.25,20.92-12.31,35.49-8.74,12.65-19.47,19.29-25.14,22.28,5.48,3.41,18.87,8.22,37.45,8.39,18.58-.17,31.97-4.99,37.45-8.39-5.67-2.99-16.41-9.63-25.14-22.28Z"/>
          <g>
            <g>
              <path class="cls-1" d="m136.94,147.67c-.15-8.27,7.22-15.1,7.22-15.1,0,0,7.6,6.57,7.75,14.84.15,8.27-7.75,15.1-7.75,15.1,0,0-7.07-6.57-7.22-14.84Z"/>
              <path class="cls-1" d="m120.13,159.24c-5.43-6.24-4.18-16.21-4.18-16.21,0,0,10.05.15,15.47,6.38,5.43,6.24,3.77,16.55,3.77,16.55,0,0-9.64-.49-15.07-6.72Z"/>
              <path class="cls-1" d="m114.68,178.9c-8.17-1.29-13.62-9.73-13.62-9.73,0,0,7.79-6.35,15.96-5.06,8.17,1.29,13.53,10.25,13.53,10.25,0,0-7.7,5.82-15.86,4.53Z"/>
              <path class="cls-1" d="m123.15,197.47c-7.09,4.26-16.69,1.3-16.69,1.3,0,0,1.89-9.87,8.97-14.13s16.95-.84,16.95-.84c0,0-2.15,9.41-9.24,13.67Z"/>
              <path class="cls-1" d="m141.58,206.24c-2.69,7.82-11.95,11.72-11.95,11.72,0,0-4.9-8.77-2.21-16.59,2.69-7.82,12.45-11.54,12.45-11.54,0,0,4.4,8.59,1.71,16.41Z"/>
              <path class="cls-1" d="m161.33,201.12c2.96,7.72-1.62,16.66-1.62,16.66,0,0-9.39-3.57-12.36-11.29-2.96-7.72,2.12-16.84,2.12-16.84,0,0,8.89,3.75,11.86,11.47Z"/>
              <path class="cls-1" d="m173.17,184.5c7.23,4.01,9.47,13.8,9.47,13.8,0,0-9.49,3.3-16.72-.71-7.23-4.01-9.2-14.26-9.2-14.26,0,0,9.23-2.84,16.46,1.17Z"/>
              <path class="cls-1" d="m171.56,164.16c8.12-1.58,16.13,4.49,16.13,4.49,0,0-5.15,8.63-13.26,10.21-8.12,1.58-16.22-5.01-16.22-5.01,0,0,5.24-8.11,13.36-9.69Z"/>
              <path class="cls-1" d="m157.25,149.61c5.2-6.43,15.24-6.93,15.24-6.93,0,0,1.6,9.92-3.6,16.35-5.2,6.43-15.64,6.59-15.64,6.59,0,0-1.2-9.58,4.01-16.01Z"/>
            </g>
            <g>
              <path class="cls-1" d="m136.94,92.47c-.15-8.27,7.22-15.1,7.22-15.1,0,0,7.6,6.57,7.75,14.84.15,8.27-7.75,15.1-7.75,15.1,0,0-7.07-6.57-7.22-14.84Z"/>
              <path class="cls-1" d="m108.87,100.39c-2.96-7.72,1.62-16.66,1.62-16.66,0,0,9.39,3.57,12.36,11.29,2.96,7.72-2.12,16.84-2.12,16.84,0,0-8.89-3.75-11.86-11.47Z"/>
              <path class="cls-1" d="m85.2,117.44c-5.43-6.24-4.18-16.21-4.18-16.21,0,0,10.05.15,15.47,6.38,5.43,6.24,3.77,16.55,3.77,16.55,0,0-9.64-.49-15.07-6.72Z"/>
              <path class="cls-1" d="m68.79,141.55c-7.23-4.01-9.47-13.8-9.47-13.8,0,0,9.49-3.3,16.72.71,7.23,4.01,9.2,14.26,9.2,14.26,0,0-9.23,2.84-16.46-1.17Z"/>
              <path class="cls-1" d="m61.62,169.82c-8.17-1.29-13.62-9.73-13.62-9.73,0,0,7.79-6.35,15.96-5.06,8.17,1.29,13.53,10.25,13.53,10.25,0,0-7.7,5.82-15.86,4.53Z"/>
              <path class="cls-1" d="m64.54,198.84c-8.12,1.58-16.12-4.49-16.12-4.49,0,0,5.15-8.63,13.26-10.21,8.12-1.58,16.22,5.01,16.22,5.01,0,0-5.24,8.11-13.36,9.69Z"/>
              <path class="cls-1" d="m75.74,222.15c-7.09,4.26-16.69,1.3-16.69,1.3,0,0,1.89-9.87,8.97-14.13,7.09-4.26,16.95-.84,16.95-.84,0,0-2.15,9.41-9.24,13.67Z"/>
              <path class="cls-1" d="m93.68,243.98c-5.2,6.43-15.24,6.93-15.24,6.93,0,0-1.6-9.92,3.6-16.35,5.2-6.43,15.64-6.59,15.64-6.59,0,0,1.2,9.58-4.01,16.01Z"/>
              <path class="cls-1" d="m202.59,236.1c5.43,6.24,4.18,16.21,4.18,16.21,0,0-10.05-.15-15.47-6.38-5.43-6.24-3.77-16.55-3.77-16.55,0,0,9.64.49,15.07,6.72Z"/>
              <path class="cls-1" d="m220.48,211.98c7.23,4.01,9.47,13.8,9.47,13.8,0,0-9.49,3.3-16.72-.71-7.23-4.01-9.2-14.26-9.2-14.26,0,0,9.23-2.84,16.46,1.17Z"/>
              <path class="cls-1" d="m229.13,182.23c8.17,1.29,13.62,9.73,13.62,9.73,0,0-7.79,6.35-15.96,5.06-8.17-1.29-13.53-10.25-13.53-10.25,0,0,7.7-5.82,15.86-4.53Z"/>
              <path class="cls-1" d="m226.2,153.21c8.12-1.58,16.12,4.49,16.12,4.49,0,0-5.15,8.63-13.26,10.21-8.12,1.58-16.22-5.01-16.22-5.01,0,0,5.24-8.11,13.36-9.69Z"/>
              <path class="cls-1" d="m213.52,126.94c7.09-4.26,16.69-1.3,16.69-1.3,0,0-1.89,9.87-8.97,14.13-7.09,4.26-16.95.84-16.95.84,0,0,2.15-9.41,9.24-13.67Z"/>
              <path class="cls-1" d="m192.62,106.59c5.2-6.43,15.24-6.93,15.24-6.93,0,0,1.6,9.92-3.6,16.35-5.2,6.43-15.64,6.59-15.64,6.59,0,0-1.2-9.58,4.01-16.01Z"/>
              <path class="cls-1" d="m166.03,94.62c2.69-7.82,11.95-11.72,11.95-11.72,0,0,4.9,8.77,2.21,16.59-2.69,7.82-12.45,11.54-12.45,11.54,0,0-4.4-8.59-1.71-16.41Z"/>
            </g>
            <g>
              <path class="cls-1" d="m126.76,118.98c-1.29-8.17,5.05-15.96,5.05-15.96,0,0,8.44,5.45,9.73,13.62,1.29,8.17-5.58,16.03-5.58,16.03,0,0-7.92-5.52-9.21-13.69Z"/>
              <path class="cls-1" d="m108.24,128.04c-4.01-7.23-.71-16.72-.71-16.72,0,0,9.8,2.23,13.8,9.46,4.01,7.23.24,16.97.24,16.97,0,0-9.33-2.48-13.34-9.71Z"/>
              <path class="cls-1" d="m93.94,142.89c-6.24-5.42-6.39-15.47-6.39-15.47,0,0,9.97-1.25,16.21,4.17,6.24,5.42,6.03,15.86,6.03,15.86,0,0-9.61.86-15.85-4.57Z"/>
              <path class="cls-1" d="m85.57,161.73c-7.72-2.96-11.29-12.35-11.29-12.35,0,0,8.94-4.59,16.66-1.62,7.72,2.96,11.09,12.84,11.09,12.84,0,0-8.74,4.09-16.46,1.13Z"/>
              <path class="cls-1" d="m84.16,182.3c-8.27-.14-14.84-7.75-14.84-7.75,0,0,6.83-7.37,15.1-7.22,8.27.14,14.82,8.28,14.82,8.28,0,0-6.81,6.84-15.08,6.69Z"/>
              <path class="cls-1" d="m89.86,202.11c-7.82,2.69-16.59-2.2-16.59-2.2,0,0,3.9-9.26,11.72-11.95,7.82-2.69,16.76,2.71,16.76,2.71,0,0-4.06,8.76-11.88,11.45Z"/>
              <path class="cls-1" d="m102,218.78c-6.43,5.2-16.34,3.6-16.34,3.6,0,0,.5-10.04,6.92-15.24,6.43-5.2,16.67-3.19,16.67-3.19,0,0-.82,9.62-7.25,14.82Z"/>
              <path class="cls-1" d="m119.1,230.29c-4.26,7.09-14.13,8.98-14.13,8.98,0,0-2.96-9.6,1.29-16.69,4.26-7.09,14.58-8.7,14.58-8.7,0,0,2.51,9.32-1.74,16.41Z"/>
              <path class="cls-1" d="m178.14,224.01c4.01,7.23.71,16.72.71,16.72,0,0-9.8-2.23-13.8-9.46-4.01-7.23-.24-16.97-.24-16.97,0,0,9.33,2.48,13.34,9.71Z"/>
              <path class="cls-1" d="m192.44,209.17c6.24,5.42,6.39,15.47,6.39,15.47,0,0-9.97,1.25-16.21-4.17-6.24-5.42-6.03-15.86-6.03-15.86,0,0,9.61-.86,15.85,4.57Z"/>
              <path class="cls-1" d="m200.81,190.32c7.72,2.96,11.29,12.35,11.29,12.35,0,0-8.94,4.59-16.66,1.62s-11.09-12.84-11.09-12.84c0,0,8.74-4.09,16.46-1.13Z"/>
              <path class="cls-1" d="m202.22,169.76c8.27.14,14.84,7.75,14.84,7.75,0,0-6.83,7.37-15.1,7.22-8.27-.14-14.82-8.28-14.82-8.28,0,0,6.81-6.84,15.08-6.69Z"/>
              <path class="cls-1" d="m196.52,149.94c7.82-2.69,16.59,2.2,16.59,2.2,0,0-3.9,9.26-11.72,11.95-7.82,2.69-16.76-2.71-16.76-2.71,0,0,4.06-8.76,11.88-11.45Z"/>
              <path class="cls-1" d="m184.38,133.28c6.43-5.2,16.34-3.6,16.34-3.6,0,0-.5,10.04-6.92,15.24-6.43,5.2-16.67,3.19-16.67,3.19,0,0,.82-9.62,7.25-14.82Z"/>
              <path class="cls-1" d="m167.27,121.77c4.26-7.09,14.13-8.98,14.13-8.98,0,0,2.96,9.6-1.29,16.69-4.26,7.09-14.58,8.7-14.58,8.7,0,0-2.51-9.32,1.74-16.41Z"/>
              <path class="cls-1" d="m147.26,116.8c1.58-8.12,10.2-13.27,10.2-13.27,0,0,6.07,8.01,4.49,16.12-1.58,8.12-10.72,13.16-10.72,13.16,0,0-5.55-7.9-3.97-16.01Z"/>
            </g>
            <g>
              <path class="cls-1" d="m121.41,78.16c-.91-5.76,3.56-11.25,3.56-11.25,0,0,5.95,3.84,6.86,9.6s-3.93,11.3-3.93,11.3c0,0-5.58-3.89-6.49-9.65Z"/>
              <path class="cls-1" d="m91.29,94.8c-2.83-5.1-.5-11.79-.5-11.79,0,0,6.91,1.57,9.73,6.67,2.83,5.1.17,11.96.17,11.96,0,0-6.58-1.75-9.4-6.85Z"/>
              <path class="cls-1" d="m65.98,116.66c-4.4-3.82-4.5-10.91-4.5-10.91,0,0,7.03-.88,11.43,2.94,4.4,3.82,4.25,11.18,4.25,11.18,0,0-6.78.6-11.18-3.22Z"/>
              <path class="cls-1" d="m48.93,144.85c-5.44-2.09-7.96-8.71-7.96-8.71,0,0,6.3-3.23,11.74-1.14,5.44,2.09,7.82,9.06,7.82,9.06,0,0-6.16,2.89-11.6.8Z"/>
              <path class="cls-1" d="m48.33,181.09c-5.83-.1-10.46-5.46-10.46-5.46,0,0,4.82-5.19,10.64-5.09,5.83.1,10.45,5.83,10.45,5.83,0,0-4.8,4.82-10.63,4.72Z"/>
              <path class="cls-1" d="m52.41,214.77c-5.51,1.9-11.7-1.55-11.7-1.55,0,0,2.75-6.53,8.26-8.43,5.51-1.9,11.81,1.91,11.81,1.91,0,0-2.87,6.17-8.38,8.07Z"/>
              <path class="cls-1" d="m72.52,240.59c-4.53,3.67-11.52,2.54-11.52,2.54,0,0,.35-7.07,4.88-10.74,4.53-3.67,11.75-2.25,11.75-2.25,0,0-.58,6.78-5.11,10.45Z"/>
              <path class="cls-1" d="m220.32,234.19c4.4,3.82,4.5,10.91,4.5,10.91,0,0-7.03.88-11.43-2.94-4.4-3.82-4.25-11.18-4.25-11.18,0,0,6.78-.6,11.18,3.22Z"/>
              <path class="cls-1" d="m239.19,203.46c5.44,2.09,7.96,8.71,7.96,8.71,0,0-6.3,3.23-11.74,1.14-5.44-2.09-7.82-9.06-7.82-9.06,0,0,6.16-2.89,11.6-.8Z"/>
              <path class="cls-1" d="m242.83,170.53c5.83.1,10.46,5.46,10.46,5.46,0,0-4.82,5.19-10.64,5.09-5.83-.1-10.45-5.83-10.45-5.83,0,0,4.8-4.82,10.63-4.72Z"/>
              <path class="cls-1" d="m235.71,136.94c5.51-1.9,11.7,1.55,11.7,1.55,0,0-2.75,6.53-8.26,8.43-5.51,1.9-11.81-1.91-11.81-1.91,0,0,2.87-6.17,8.38-8.07Z"/>
              <path class="cls-1" d="m215.26,108.78c4.53-3.67,11.52-2.54,11.52-2.54,0,0-.35,7.07-4.88,10.74-4.53,3.67-11.75,2.25-11.75,2.25,0,0,.58-6.78,5.11-10.45Z"/>
              <path class="cls-1" d="m188.89,89.23c3-5,9.96-6.33,9.96-6.33,0,0,2.09,6.77-.91,11.76-3,5-10.28,6.13-10.28,6.13,0,0-1.77-6.57,1.23-11.57Z"/>
              <path class="cls-1" d="m154.62,80.56c1.11-5.72,7.19-9.35,7.19-9.35,0,0,4.28,5.65,3.17,11.37-1.11,5.72-7.56,9.28-7.56,9.28,0,0-3.91-5.57-2.8-11.29Z"/>
            </g>
          </g>
        </g>
      </g>
    </g>
  </g>
</svg>